<?xml version="1.0" encoding="UTF-8"?>
<svg version="1.1" xmlns="http://www.w3.org/2000/svg" width="24" height="24">
<path d="M0 0 C0.89460937 -0.00128906 1.78921875 -0.00257812 2.7109375 -0.00390625 C3.65195313 -0.00003906 4.59296875 0.00382813 5.5625 0.0078125 C6.97402344 0.00201172 6.97402344 0.00201172 8.4140625 -0.00390625 C9.75597656 -0.00197266 9.75597656 -0.00197266 11.125 0 C11.95128906 0.00112793 12.77757813 0.00225586 13.62890625 0.00341797 C15.5625 0.1328125 15.5625 0.1328125 16.5625 1.1328125 C16.71870555 2.54609197 16.81306173 3.9663584 16.87890625 5.38671875 C16.93606812 6.54022827 16.93606812 6.54022827 16.99438477 7.71704102 C17.03748779 8.69987061 17.08059082 9.6827002 17.125 10.6953125 C17.269375 13.8096875 17.41375 16.9240625 17.5625 20.1328125 C9.6425 20.1328125 1.7225 20.1328125 -6.4375 20.1328125 C-6.293125 17.0184375 -6.14875 13.9040625 -6 10.6953125 C-5.95689697 9.71248291 -5.91379395 8.72965332 -5.86938477 7.71704102 C-5.8122229 6.56353149 -5.8122229 6.56353149 -5.75390625 5.38671875 C-5.71724854 4.59595947 -5.68059082 3.8052002 -5.64282227 2.99047852 C-5.24061105 -0.64855259 -3.19331602 0.00435905 0 0 Z M-1.4375 3.1328125 C-1.4375 4.4528125 -1.4375 5.7728125 -1.4375 7.1328125 C-2.4275 7.6278125 -2.4275 7.6278125 -3.4375 8.1328125 C-2.7775 8.1328125 -2.1175 8.1328125 -1.4375 8.1328125 C-1.4375 9.1228125 -1.4375 10.1128125 -1.4375 11.1328125 C3.1825 11.1328125 7.8025 11.1328125 12.5625 11.1328125 C12.5625 10.1428125 12.5625 9.1528125 12.5625 8.1328125 C13.2225 7.8028125 13.8825 7.4728125 14.5625 7.1328125 C13.9025 7.1328125 13.2425 7.1328125 12.5625 7.1328125 C12.5625 5.8128125 12.5625 4.4928125 12.5625 3.1328125 C7.9425 3.1328125 3.3225 3.1328125 -1.4375 3.1328125 Z M-4.4375 15.1328125 C-4.4375 15.7928125 -4.4375 16.4528125 -4.4375 17.1328125 C-2.4575 17.1328125 -0.4775 17.1328125 1.5625 17.1328125 C1.8925 16.4728125 2.2225 15.8128125 2.5625 15.1328125 C0.2525 15.1328125 -2.0575 15.1328125 -4.4375 15.1328125 Z M8.5625 15.1328125 C8.8925 15.7928125 9.2225 16.4528125 9.5625 17.1328125 C11.5425 17.1328125 13.5225 17.1328125 15.5625 17.1328125 C15.5625 16.4728125 15.5625 15.8128125 15.5625 15.1328125 C13.2525 15.1328125 10.9425 15.1328125 8.5625 15.1328125 Z M3.5625 16.1328125 C7.5625 17.1328125 7.5625 17.1328125 7.5625 17.1328125 Z " fill="#369084" transform="translate(6.4375,1.8671875)"/>
</svg>
